<svg xmlns="http://www.w3.org/2000/svg" viewBox="0 0 900 340" width="900" height="340" role="img" aria-label="Maze preview">
  <defs>
    <linearGradient id="bg" x1="0" y1="0" x2="1" y2="1">
      <stop offset="0%" stop-color="#4d0000"/>
      <stop offset="100%" stop-color="#8f1d1d"/>
    </linearGradient>
    <filter id="shadow" x="-20%" y="-20%" width="140%" height="140%">
      <feDropShadow dx="0" dy="8" stdDeviation="10" flood-color="#2a0000" flood-opacity="0.35"/>
    </filter>
  </defs>
  <rect width="900" height="340" rx="26" fill="url(#bg)"/>
  <g filter="url(#shadow)">
    <rect x="26" y="26" width="848" height="288" rx="22" fill="#f0e2dc" stroke="#b33636" stroke-width="8"/>
  </g>
  <text x="52" y="72" font-size="28" font-family="Verdana,Arial,sans-serif" font-weight="700" fill="#231f20">Procedural Maze Preview</text>
  <text x="52" y="102" font-size="15" font-family="Verdana,Arial,sans-serif" fill="#5a4747">Static SVG illustration for README. You can replace it later with a real screenshot or GIF.</text>
  <g transform="translate(52,126)">
    <rect x="0" y="0" width="245" height="160" rx="14" fill="#fff8f6" stroke="#c34b4b" stroke-width="4"/>
    <path d="M15 15 H230 V145 H15 Z M55 15 V55 H95 V35 H135 V95 H175 V55 H215 M35 35 V115 H75 M95 55 V135 H155 M175 95 V135 H215 M55 75 H115 M135 115 H195" fill="none" stroke="#b33636" stroke-width="10" stroke-linecap="round" stroke-linejoin="round"/>
    <circle cx="35" cy="35" r="10" fill="#39a844"/>
    <circle cx="215" cy="125" r="10" fill="#111"/>
    <text x="18" y="155" font-size="14" font-family="Verdana,Arial,sans-serif" fill="#5a4747">Start</text>
    <text x="192" y="155" font-size="14" font-family="Verdana,Arial,sans-serif" fill="#5a4747">Finish</text>
  </g>
  <g transform="translate(335,126)">
    <rect x="0" y="0" width="236" height="160" rx="14" fill="#fff8f6" stroke="#c34b4b" stroke-width="4"/>
    <text x="18" y="28" font-size="18" font-family="Verdana,Arial,sans-serif" font-weight="700" fill="#231f20">Generation Parameters</text>
    <text x="18" y="58" font-size="15" font-family="Verdana,Arial,sans-serif" fill="#5a4747">Seed: 614470264</text>
    <text x="18" y="84" font-size="15" font-family="Verdana,Arial,sans-serif" fill="#5a4747">Chunk size: 4</text>
    <text x="18" y="110" font-size="15" font-family="Verdana,Arial,sans-serif" fill="#5a4747">Maze width: 3</text>
    <text x="18" y="136" font-size="15" font-family="Verdana,Arial,sans-serif" fill="#5a4747">Maze height: 3</text>
  </g>
  <g transform="translate(605,126)">
    <rect x="0" y="0" width="220" height="160" rx="14" fill="#fff8f6" stroke="#c34b4b" stroke-width="4"/>
    <text x="18" y="28" font-size="18" font-family="Verdana,Arial,sans-serif" font-weight="700" fill="#231f20">Legend</text>
    <circle cx="28" cy="56" r="8" fill="#39a844"/>
    <text x="48" y="61" font-size="15" font-family="Verdana,Arial,sans-serif" fill="#5a4747">Start position</text>
    <circle cx="28" cy="88" r="8" fill="#111"/>
    <text x="48" y="93" font-size="15" font-family="Verdana,Arial,sans-serif" fill="#5a4747">Finish point</text>
    <rect x="20" y="110" width="34" height="12" fill="#b33636"/>
    <text x="64" y="121" font-size="15" font-family="Verdana,Arial,sans-serif" fill="#5a4747">Maze wall</text>
    <rect x="20" y="134" width="34" height="12" fill="#f7d6d6" stroke="#c34b4b"/>
    <text x="64" y="145" font-size="15" font-family="Verdana,Arial,sans-serif" fill="#5a4747">Maze path</text>
  </g>
</svg>